<svg width="864" height="702" viewBox="0 0 864 702" fill="none" xmlns="http://www.w3.org/2000/svg">
<g opacity="0.5">
<mask id="mask0_1792_11879" style="mask-type:alpha" maskUnits="userSpaceOnUse" x="772" y="254" width="209" height="209">
<rect width="208.471" height="208.471" transform="matrix(0 -1 -1 0 980.52 462.556)" fill="#E9E9E9"/>
</mask>
<g mask="url(#mask0_1792_11879)">
<rect width="331.279" height="45.6031" rx="1" transform="matrix(0.707107 -0.707107 -0.707107 -0.707107 772.324 495.119)" fill="#20212A"/>
<rect width="251.785" height="45.6031" rx="1" transform="matrix(0.707107 -0.707107 -0.707107 -0.707107 848.09 514.686)" fill="#20212A"/>
<rect width="251.785" height="45.6031" rx="1" transform="matrix(0.707107 -0.707107 -0.707107 -0.707107 893.688 560.279)" fill="#20212A"/>
<rect width="251.785" height="45.6031" rx="1" transform="matrix(0.707107 -0.707107 -0.707107 -0.707107 750.363 416.958)" fill="#20212A"/>
<rect width="251.785" height="45.6031" rx="1" transform="matrix(0.707107 -0.707107 -0.707107 -0.707107 698.246 377.861)" fill="#20212A"/>
</g>
<rect width="208.471" height="45.6031" rx="1" transform="matrix(0 -1 -1 0 902.34 208.474)" fill="#20212A"/>
<rect width="208.471" height="45.6031" rx="1" transform="matrix(0 -1 -1 0 817.652 208.474)" fill="#20212A"/>
<rect width="208.471" height="45.6031" rx="1" transform="matrix(0 -1 -1 0 472.371 208.483)" fill="#20212A"/>
<rect width="208.471" height="45.6031" rx="1" transform="matrix(0 1 1 0 263.898 0.00878906)" fill="#20212A"/>
<rect width="208.471" height="45.6031" rx="1" transform="matrix(1 0 0 -1 263.898 208.483)" fill="#20212A"/>
<rect width="208.471" height="45.6031" rx="1" transform="matrix(-1 0 0 1 472.371 0.00878906)" fill="#20212A"/>
<rect x="517.969" y="208.474" width="208.471" height="45.6031" rx="1" transform="rotate(-90 517.969 208.474)" fill="#20212A"/>
<rect x="609.172" y="117.266" width="117.265" height="45.6031" rx="1" transform="rotate(-90 609.172 117.266)" fill="#20212A"/>
<rect x="726.441" y="208.474" width="208.471" height="45.6031" rx="1" transform="rotate(180 726.441 208.474)" fill="#20212A"/>
<rect x="726.441" y="117.265" width="117.265" height="45.6031" rx="1" transform="rotate(180 726.441 117.265)" fill="#20212A"/>
<mask id="mask1_1792_11879" style="mask-type:alpha" maskUnits="userSpaceOnUse" x="263" y="254" width="210" height="209">
<rect width="208.471" height="208.471" transform="matrix(0 -1 -1 0 472.367 462.556)" fill="#E9E9E9"/>
</mask>
<g mask="url(#mask1_1792_11879)">
<path d="M413.739 473.021C413.942 473.799 414.934 474.031 415.462 473.424L512.191 361.994C512.407 361.745 512.487 361.405 512.403 361.086L501.476 319.311C501.272 318.533 500.28 318.302 499.753 318.909L403.024 430.338C402.807 430.588 402.728 430.928 402.811 431.247L413.739 473.021Z" fill="#20212A"/>
<path d="M395.61 403.68C395.814 404.458 396.806 404.69 397.333 404.083L494.062 292.653C494.278 292.404 494.358 292.064 494.274 291.745L483.347 249.971C483.143 249.193 482.151 248.961 481.624 249.568L384.895 360.998C384.678 361.247 384.599 361.587 384.683 361.906L395.61 403.68Z" fill="#20212A"/>
<path d="M280.028 528.201C280.232 528.979 281.223 529.211 281.751 528.603L378.48 417.174C378.696 416.925 378.776 416.585 378.692 416.265L367.765 374.491C367.561 373.713 366.569 373.481 366.042 374.089L269.313 485.518C269.096 485.767 269.017 486.107 269.101 486.427L280.028 528.201Z" fill="#20212A"/>
<path d="M377.473 334.359C377.677 335.137 378.669 335.369 379.196 334.762L475.925 223.332C476.142 223.083 476.221 222.743 476.137 222.423L465.21 180.649C465.006 179.871 464.014 179.639 463.487 180.247L366.758 291.676C366.542 291.926 366.462 292.266 366.546 292.585L377.473 334.359Z" fill="#20212A"/>
<path d="M261.891 458.86C262.095 459.638 263.087 459.87 263.614 459.263L360.343 347.833C360.56 347.584 360.639 347.244 360.555 346.924L349.628 305.15C349.424 304.372 348.432 304.14 347.905 304.748L251.176 416.177C250.96 416.427 250.88 416.767 250.964 417.086L261.891 458.86Z" fill="#20212A"/>
<path d="M243.762 389.539C243.966 390.317 244.958 390.549 245.485 389.941L342.214 278.512C342.431 278.262 342.51 277.922 342.427 277.603L331.499 235.829C331.295 235.051 330.304 234.819 329.776 235.426L233.047 346.856C232.831 347.105 232.751 347.445 232.835 347.765L243.762 389.539Z" fill="#20212A"/>
</g>
<rect width="207.593" height="47.1802" rx="1" transform="matrix(1 0 0 -1 518.156 382.165)" fill="#20212A"/>
<rect width="207.593" height="42.4622" rx="1" transform="matrix(1 0 0 -1 518.156 297.237)" fill="#20212A"/>
<rect width="207.593" height="44.8212" rx="1" transform="matrix(1 0 0 -1 518.156 462.369)" fill="#20212A"/>
<rect width="209.952" height="44.8212" rx="1" transform="matrix(0 -1 -1 0 551.996 702)" fill="#20212A"/>
<rect width="209.952" height="42.4622" rx="3" transform="matrix(0 -1 -1 0 629.844 702)" fill="#20212A"/>
<rect width="51.8982" height="51.8982" rx="1" transform="matrix(0 -1 -1 0 717.129 702)" fill="#20212A"/>
<rect width="51.8982" height="51.8982" rx="1" transform="matrix(0 -1 -1 0 717.129 543.948)" fill="#20212A"/>
<circle r="25.9491" transform="matrix(0 -1 -1 0 691.18 595.847)" fill="#20212A"/>
<path fill-rule="evenodd" clip-rule="evenodd" d="M254.329 597.259C254.329 539.692 300.997 493.024 358.565 493.024C416.133 493.024 462.801 539.692 462.801 597.259C462.801 654.827 416.133 701.495 358.565 701.495C300.997 701.495 254.329 654.827 254.329 597.259ZM293.416 597.27C293.416 561.29 322.584 532.122 358.564 532.122C394.543 532.122 423.711 561.29 423.711 597.27C423.711 633.25 394.543 662.417 358.564 662.417C322.584 662.417 293.416 633.25 293.416 597.27Z" fill="#20212A"/>
<rect width="52.1179" height="52.1179" rx="1" transform="matrix(0 -1 -1 0 208.473 623.316)" fill="#20212A"/>
<rect width="52.1179" height="52.1179" rx="1" transform="matrix(0 -1 -1 0 208.473 545.137)" fill="#20212A"/>
<rect width="52.1179" height="52.1179" rx="1" transform="matrix(0 -1 -1 0 130.293 701.495)" fill="#20212A"/>
<rect width="52.1179" height="52.1179" rx="1" transform="matrix(0 -1 -1 0 52.1172 701.495)" fill="#20212A"/>
<rect width="52.1179" height="52.1179" rx="1" transform="matrix(0 -1 -1 0 52.1172 623.316)" fill="#20212A"/>
<rect width="52.1179" height="52.1179" rx="1" transform="matrix(0 -1 -1 0 52.1172 545.137)" fill="#20212A"/>
<circle r="26.2853" transform="matrix(0 -1 -1 0 181.711 675.21)" fill="#20212A"/>
<circle r="26.2853" transform="matrix(0 -1 -1 0 104.234 597.731)" fill="#20212A"/>
<circle r="26.2853" transform="matrix(0 -1 -1 0 104.234 517.504)" fill="#20212A"/>
</g>
</svg>
